<svg width="253" height="253" xmlns="http://www.w3.org/2000/svg" xmlns:xlink="http://www.w3.org/1999/xlink" xml:space="preserve" overflow="hidden"><defs><clipPath id="clip0"><rect x="188" y="372" width="253" height="253"/></clipPath><clipPath id="clip1"><path d="M246.832 624.487 188.159 430.93 381.715 372.258 440.388 565.814Z" fill-rule="evenodd" clip-rule="evenodd"/></clipPath><clipPath id="clip2"><path d="M246.832 624.487 188.159 430.93 381.715 372.258 440.388 565.814Z" fill-rule="evenodd" clip-rule="evenodd"/></clipPath><clipPath id="clip3"><path d="M246.832 624.487 188.159 430.93 381.715 372.258 440.388 565.814Z" fill-rule="evenodd" clip-rule="evenodd"/></clipPath></defs><g clip-path="url(#clip0)" transform="translate(-188 -372)"><g clip-path="url(#clip1)"><g clip-path="url(#clip2)"><g clip-path="url(#clip3)"><path d="M242.26 536.052 234.394 509.377C233.355 505.95 229.939 504.123 226.512 505.162 223.084 506.201 221.258 509.617 222.297 513.044L234.117 553.491C234.545 554.902 235.315 555.99 236.69 556.894 236.751 557.095 236.952 557.034 237.215 557.175 237.478 557.315 237.539 557.517 238.003 557.596 238.003 557.596 238.266 557.737 238.468 557.676 238.468 557.676 238.73 557.816 238.932 557.755 239.922 558.115 240.991 558.011 241.999 557.706L282.446 545.886C285.873 544.847 287.7 541.431 286.661 538.003 285.622 534.576 282.206 532.749 278.778 533.788L253.716 541.165C266.098 502.849 292.362 478.376 331.886 468.597 351.407 464.001 371.563 462.954 391.549 465.702 395.001 466.196 398.062 463.947 398.556 460.495 399.112 457.245 397.004 453.921 393.491 453.225 372.112 450.239 350.159 451.17 329.025 456.255 298.898 463.627 259.564 483.475 242.26 536.052Z"/></g></g></g></g></svg>