<svg width="253" height="253" xmlns="http://www.w3.org/2000/svg" xmlns:xlink="http://www.w3.org/1999/xlink" xml:space="preserve" overflow="hidden"><defs><clipPath id="clip0"><rect x="188" y="372" width="253" height="253"/></clipPath><clipPath id="clip1"><path d="M381.715 624.487 440.388 430.93 246.832 372.258 188.159 565.814Z" fill-rule="evenodd" clip-rule="evenodd"/></clipPath><clipPath id="clip2"><path d="M381.715 624.487 440.388 430.93 246.832 372.258 188.159 565.814Z" fill-rule="evenodd" clip-rule="evenodd"/></clipPath><clipPath id="clip3"><path d="M381.715 624.487 440.388 430.93 246.832 372.258 188.159 565.814Z" fill-rule="evenodd" clip-rule="evenodd"/></clipPath></defs><g clip-path="url(#clip0)" transform="translate(-188 -372)"><g clip-path="url(#clip1)"><g clip-path="url(#clip2)"><g clip-path="url(#clip3)"><path d="M85.9578 21.2788 113.768 21.4894C117.349 21.4894 120.088 18.7506 120.088 15.169 120.088 11.5874 117.349 8.84859 113.768 8.84859L71.6315 8.42723C70.1567 8.42723 68.8926 8.84859 67.6285 9.902 67.4178 9.902 67.4178 10.1127 67.2072 10.3234 66.9965 10.534 66.7858 10.534 66.5751 10.9554 66.5751 10.9554 66.3644 11.1661 66.3644 11.3768 66.3644 11.3768 66.1538 11.5874 66.1538 11.7981 65.5217 12.6408 65.311 13.6943 65.311 14.7477L64.8897 56.8838C64.8897 60.4654 67.6285 63.2042 71.2101 63.2042 74.7917 63.2042 77.5305 60.4654 77.5305 56.8838L77.7412 30.7594C110.818 53.7236 126.619 85.9578 124.512 126.619 123.248 146.634 118.403 166.227 109.975 184.556 108.501 187.717 109.765 191.298 112.925 192.773 115.874 194.248 119.667 193.194 121.352 190.034 130.411 170.441 135.889 149.162 137.153 127.462 138.839 96.4918 131.254 53.0916 85.9578 21.2788Z" transform="matrix(0.290095 -0.956998 -0.956998 -0.290095 381.715 624.487)"/></g></g></g></g></svg>